<?xml version="1.0" standalone="no"?>
<svg viewBox="0 0 200 200" xmlns="http://www.w3.org/2000/svg">
  <path fill="#9EF0F0" d="M52.5,-49.5C69.1,-35.8,84.5,-17.9,86,1.5C87.5,20.9,75,41.7,58.4,54.7C41.7,67.8,20.9,73,1.4,71.6C-18.1,70.1,-36.1,62.2,-47.6,49.1C-59.1,36.1,-64,18.1,-62.7,1.3C-61.4,-15.4,-53.8,-30.9,-42.3,-44.6C-30.9,-58.3,-15.4,-70.4,1.2,-71.7C17.9,-72.9,35.8,-63.3,52.5,-49.5Z" transform="translate(100 100)" />
</svg>


<svg viewBox="0 0 200 187" xmlns="http://www.w3.org/2000/svg" xmlns:xlink="http://www.w3.org/1999/xlink">
    <mask id="mask0" mask-type="alpha">
        <path d="M52.5,-49.5C69.1,-35.8,84.5,-17.9,86,1.5C87.5,20.9,75,41.7,58.4,54.7C41.7,67.8,20.9,73,1.4,71.6C-18.1,70.1,-36.1,62.2,-47.6,49.1C-59.1,36.1,-64,18.1,-62.7,1.3C-61.4,-15.4,-53.8,-30.9,-42.3,-44.6C-30.9,-58.3,-15.4,-70.4,1.2,-71.7C17.9,-72.9,35.8,-63.3,52.5,-49.5Z"/>
    </mask>
    <g mask="url(#mask0)">
<path d="M52.5,-49.5C69.1,-35.8,84.5,-17.9,86,1.5C87.5,20.9,75,41.7,58.4,54.7C41.7,67.8,20.9,73,1.4,71.6C-18.1,70.1,-36.1,62.2,-47.6,49.1C-59.1,36.1,-64,18.1,-62.7,1.3C-61.4,-15.4,-53.8,-30.9,-42.3,-44.6C-30.9,-58.3,-15.4,-70.4,1.2,-71.7C17.9,-72.9,35.8,-63.3,52.5,-49.5Z"/>
        <image href=""/>
    </g>
</svg>

<svg viewBox="0 0 200 187" xmlns="http://www.w3.org/2000/svg" xmlns:xlink="http://www.w3.org/1999/xlink">
    <mask id="mask0" mask-type="alpha">
        <path d="M190.312 36.4879C206.582 62.1187 201.309 102.826 182.328 134.186C163.346 165.547 
        130.807 187.559 100.226 186.353C69.6454 185.297 41.0228 161.023 21.7403 129.362C2.45775 
        97.8511 -7.48481 59.1033 6.67581 34.5279C20.9871 10.1032 59.7028 -0.149132 97.9666 
        0.00163737C136.23 0.303176 174.193 10.857 190.312 36.4879Z"/>
    </mask>
    <g mask="url(#mask0)">
        <path d="M190.312 36.4879C206.582 62.1187 201.309 102.826 182.328 134.186C163.346 
        165.547 130.807 187.559 100.226 186.353C69.6454 185.297 41.0228 161.023 21.7403 
        129.362C2.45775 97.8511 -7.48481 59.1033 6.67581 34.5279C20.9871 10.1032 59.7028 
        -0.149132 97.9666 0.00163737C136.23 0.303176 174.193 10.857 190.312 36.4879Z"/>
        <image href=""/>
    </g>
</svg>